<?xml version="1.0" standalone="no"?> <!DOCTYPE svg PUBLIC "-//W3C//DTD SVG 20010904//EN" "http://www.w3.org/TR/2001/REC-SVG-20010904/DTD/svg10.dtd"> <svg version="1.0" xmlns="http://www.w3.org/2000/svg" width="292.000000pt" height="254.000000pt" viewBox="0 0 292.000000 254.000000" preserveAspectRatio="xMidYMid meet"> <g transform="translate(0.000000,254.000000) scale(0.100000,-0.100000)" fill="#ff0000" stroke="none"> <path d="M1095 2476 c-461 -120 -792 -463 -896 -926 -24 -109 -26 -351 -4 -469 75 -396 346 -731 715 -887 264 -111 584 -124 855 -33 362 121 646 405 764 765 203 622 -120 1287 -736 1513 -137 50 -212 61 -420 61 -164 -1 -200 -4 -278 -24z m516 -6 c243 -50 430 -150 605 -324 170 -169 265 -334 325 -562 21 -79 24 -111 23 -284 0 -181 -2 -202 -28 -295 -29 -106 -103 -272 -157 -352 -39 -59 -139 -173 -198 -228 -212 -196 -500 -307 -796 -308 -145 0 -237 15 -373 59 -411 134 -708 471 -796 906 -18 89 -21 319 -6 415 78 477 451 870 920 967 111 23 114 23 253 25 94 1 155 -4 228 -19z"/> <path d="M558 1853 c-68 -42 -95 -171 -54 -256 17 -35 46 -47 37 -16 -2 8 -6 46 -9 85 -5 79 10 122 57 161 45 38 75 26 87 -34 4 -22 -9 -75 -45 -186 -52 -159 -64 -244 -41 -288 20 -37 38 -22 37 30 -1 71 109 294 182 369 45 45 81 66 81 46 0 -3 -22 -63 -50 -132 -47 -119 -64 -202 -42 -216 15 -9 29 9 37 44 19 91 146 261 216 290 56 23 53 12 -41 -203 -44 -99 -53 -129 -54 -182 -1 -74 23 -118 68 -123 34 -4 57 16 81 68 15 33 22 39 41 34 12 -3 31 -3 42 0 19 6 48 61 54 101 2 11 10 21 19 23 22 4 64 -107 55 -143 -9 -35 -30 -27 -36 14 -6 36 -18 44 -33 20 -16 -25 12 -73 45 -77 34 -4 68 29 68 66 0 15 -9 55 -21 88 -23 65 -21 101 8 129 16 16 17 16 30 -1 11 -15 10 -21 -2 -40 -16 -25 -20 -54 -7 -54 36 0 67 85 42 115 -17 21 -73 19 -100 -3 -13 -11 -25 -35 -29 -58 -7 -45 -35 -59 -46 -22 -13 42 -46 68 -86 68 -44 0 -57 -21 -33 -58 13 -19 14 -30 5 -49 -6 -13 -11 -42 -11 -64 0 -39 -30 -100 -64 -128 -39 -33 -64 45 -41 133 8 30 39 108 70 174 73 158 71 202 -10 202 -25 0 -112 -75 -148 -129 -25 -38 -31 -18 -8 28 22 43 28 96 11 106 -6 4 -24 7 -41 7 -50 2 -120 -76 -184 -207 -30 -60 -55 -107 -55 -104 0 3 20 65 45 137 51 146 52 186 9 229 -28 28 -95 31 -136 6z m632 -318 c21 -26 23 -96 3 -134 -22 -43 -40 -50 -48 -18 -8 29 19 97 37 97 7 0 -2 8 -19 16 -31 16 -41 33 -26 47 11 12 40 8 53 -8z"/> <path d="M1716 1814 c-40 -40 -82 -120 -106 -204 -13 -41 -27 -81 -33 -87 -15 -20 -37 -15 -37 6 0 24 -36 51 -67 51 -25 0 -46 -30 -37 -54 3 -8 -4 -27 -15 -42 -25 -32 -28 -96 -5 -118 38 -38 104 4 119 76 7 34 22 58 35 58 4 0 5 -33 2 -72 -4 -64 -1 -76 18 -100 12 -16 29 -28 39 -28 24 0 79 54 87 85 5 21 9 23 26 14 23 -13 42 0 66 45 13 25 17 27 20 13 2 -11 -12 -35 -36 -61 -88 -96 -107 -196 -36 -196 29 0 71 53 89 113 14 48 22 137 13 153 -3 5 -8 21 -12 37 -7 31 -36 37 -36 7 0 -12 -9 -39 -21 -62 -15 -30 -24 -37 -32 -29 -8 8 -8 23 1 56 16 60 15 65 -7 65 -14 0 -21 -12 -30 -47 -7 -27 -16 -64 -21 -83 -11 -40 -43 -80 -65 -80 -30 0 -37 37 -21 118 13 75 17 81 76 143 65 68 105 127 120 179 7 25 5 35 -11 51 -26 26 -51 24 -83 -7z m74 -13 c0 -11 -5 -32 -10 -47 -19 -50 -150 -217 -150 -191 0 9 45 118 66 159 40 79 94 124 94 79z m-280 -287 c0 -13 -6 -24 -12 -24 -10 0 -10 -2 0 -8 10 -7 10 -15 2 -38 -14 -35 -50 -75 -61 -68 -23 14 -3 86 30 111 9 7 11 13 5 13 -20 0 -24 28 -8 45 20 20 44 3 44 -31z m315 -136 c-9 -56 -37 -118 -63 -141 -49 -44 -33 47 23 131 20 28 38 52 41 52 3 0 3 -19 -1 -42z"/> <path d="M2102 1791 c1 -16 -5 -44 -12 -61 -17 -41 -7 -48 24 -17 32 32 35 81 7 97 -17 9 -20 7 -19 -19z"/> <path d="M2196 1675 c-31 -41 -39 -42 -66 -15 -22 22 -51 26 -81 10 -21 -12 -25 -40 -8 -57 7 -7 7 -22 -1 -50 -15 -49 3 -98 35 -98 25 0 64 58 71 107 4 24 14 43 26 49 23 12 22 13 36 -29 14 -40 1 -74 -26 -71 -30 3 -35 -1 -22 -16 17 -21 54 -19 75 5 14 16 16 29 11 67 -14 94 -14 98 17 101 23 3 26 6 16 18 -20 25 -55 16 -83 -21z m-77 -34 c13 -23 -2 -31 -42 -24 -31 6 -35 18 -9 32 26 15 40 13 51 -8z m11 -47 c0 -20 -45 -104 -56 -104 -19 0 -18 60 2 88 13 19 54 32 54 16z"/> <path d="M1994 1595 c-4 -10 -11 -12 -23 -5 -32 16 -59 0 -75 -44 -21 -56 -22 -77 -8 -103 18 -33 48 -29 69 10 17 31 18 31 21 8 3 -17 -6 -31 -32 -53 -52 -43 -80 -101 -80 -169 -1 -42 4 -62 18 -78 26 -28 62 -26 91 5 29 32 39 74 38 172 0 39 4 72 9 72 18 0 29 -56 23 -109 -8 -61 11 -69 30 -12 12 37 32 53 58 45 9 -3 17 0 17 6 0 17 -26 23 -49 10 -18 -9 -21 -8 -21 12 0 33 -27 68 -52 68 -20 0 -21 3 -15 90 5 59 3 90 -3 90 -6 0 -13 -7 -16 -15z m-27 -67 c-9 -65 -57 -120 -57 -64 0 27 18 85 33 103 17 22 29 2 24 -39z m13 -218 c-11 -130 -37 -174 -80 -135 -25 22 -26 80 -4 133 17 42 75 106 84 95 4 -5 4 -46 0 -93z"/> <path d="M2075 1197 c-12 -12 -30 -27 -40 -33 -33 -19 -8 -28 32 -13 21 8 39 23 41 33 6 30 -12 36 -33 13z"/> <path d="M1126 1175 c-7 -20 3 -45 19 -45 16 0 26 25 19 45 -4 8 -12 15 -19 15 -7 0 -15 -7 -19 -15z"/> <path d="M1340 1165 c0 -28 25 -44 42 -27 7 7 6 17 -1 31 -16 30 -41 27 -41 -4z"/> <path d="M763 1098 c-25 -12 -29 -23 -13 -33 14 -8 13 -261 -1 -287 -6 -11 -8 -22 -5 -25 3 -3 38 -1 78 5 62 9 77 16 101 42 41 46 38 99 -9 138 l-36 30 22 30 c31 41 21 78 -25 98 -40 16 -81 17 -112 2z m95 -24 c13 -9 22 -26 22 -41 0 -34 -36 -73 -67 -73 -21 0 -23 4 -23 58 0 32 3 62 7 65 11 12 37 8 61 -9z m37 -159 c29 -28 31 -56 8 -96 -18 -30 -23 -32 -80 -44 l-33 -7 0 86 0 86 40 0 c30 0 47 -7 65 -25z"/> <path d="M1971 1099 c-75 -15 -131 -95 -133 -188 -3 -108 54 -166 169 -173 68 -3 78 1 68 31 -6 20 -8 20 -35 6 -38 -20 -58 -19 -99 3 -39 21 -71 73 -71 114 0 27 1 28 60 28 47 0 60 3 60 15 0 12 -13 15 -60 15 -64 0 -69 5 -46 48 34 65 84 86 159 67 23 -6 27 -4 27 13 0 23 -44 32 -99 21z"/> <path d="M981 1091 c-12 -8 -12 -18 3 -68 9 -32 22 -76 28 -98 16 -58 104 -140 171 -160 89 -26 145 -16 230 42 50 34 80 88 108 191 19 71 20 85 8 93 -8 5 -23 8 -33 7 -17 -3 -20 -12 -20 -84 -1 -70 -4 -86 -28 -122 -59 -89 -178 -124 -276 -82 -100 43 -151 130 -137 237 6 51 5 53 -17 53 -13 0 -29 -4 -37 -9z"/> <path d="M1600 1098 c0 -2 -1 -79 -2 -173 0 -160 1 -170 18 -170 17 0 19 7 16 65 -4 106 -3 109 70 107 50 -2 63 1 63 13 0 12 -12 14 -62 12 l-63 -4 0 61 0 61 85 0 c69 0 85 3 85 15 0 12 -18 15 -105 15 -58 0 -105 -1 -105 -2z"/> </g> </svg>